<svg width="50" height="51" viewBox="0 0 50 51" fill="none" xmlns="http://www.w3.org/2000/svg">
<rect y="0.900208" width="50" height="50" rx="25" fill="#E8F2EE"/>
<path d="M14.4997 15.4001H35.4997C35.8091 15.4001 36.1058 15.5231 36.3246 15.7419C36.5434 15.9606 36.6663 16.2574 36.6663 16.5668V35.2335C36.6663 35.5429 36.5434 35.8396 36.3246 36.0584C36.1058 36.2772 35.8091 36.4001 35.4997 36.4001H14.4997C14.1903 36.4001 13.8935 36.2772 13.6747 36.0584C13.4559 35.8396 13.333 35.5429 13.333 35.2335V16.5668C13.333 16.2574 13.4559 15.9606 13.6747 15.7419C13.8935 15.5231 14.1903 15.4001 14.4997 15.4001V15.4001ZM34.333 25.9001H15.6663V34.0668H34.333V25.9001ZM34.333 21.2335V17.7335H15.6663V21.2335H34.333Z" fill="#5BB5A2"/>
</svg>
